<?xml version="1.0" encoding="UTF-8"?>
<svg width="1702" height="1700" clip-rule="evenodd" fill-rule="evenodd" stroke-linejoin="round" stroke-miterlimit="2" version="1.1" viewBox="0 0 1702 1700" xml:space="preserve" xmlns="http://www.w3.org/2000/svg"><defs><clipPath id="a-9"><path d="m1822 121.95c0-18.185-14.76-32.949-32.95-32.949h-1636.1c-18.185 0-32.949 14.764-32.949 32.949v781.1c0 18.185 14.764 32.949 32.949 32.949h1636.1c18.19 0 32.95-14.764 32.95-32.949z" clip-rule="evenodd"/></clipPath></defs><clipPath id="a"><path d="m1822 121.95c0-18.185-14.76-32.949-32.95-32.949h-1636.1c-18.185 0-32.949 14.764-32.949 32.949v781.1c0 18.185 14.764 32.949 32.949 32.949h1636.1c18.19 0 32.95-14.764 32.95-32.949z" clip-rule="evenodd"/></clipPath><path d="m0 0h1702v847h-1702z" fill="none"/><g transform="translate(-120,-89)" clip-path="url(#a)"><path transform="matrix(1.7385 0 0 1.8137 -88.621 -72.42)" d="m1099 107.17c0-10.027-8.49-18.167-18.95-18.167h-941.1c-10.46 0-18.952 8.14-18.952 18.167v430.67c0 10.027 8.492 18.167 18.952 18.167h941.1c10.46 0 18.95-8.14 18.95-18.167z" fill="#1e1e2e"/><path transform="matrix(3.6613 0 0 7.8426 -319.36 -608.99)" d="m120 89h124v108h-124z" fill="#11111b"/><path transform="matrix(1.0435 0 0 1.2759 -24.956 -24.552)" d="m574 89h1196v43.5h-1196z" fill="#181825"/><path transform="matrix(6.0833 0 0 1 -3234 9)" d="m684 109c0-5.304-0.346-10.391-0.963-14.142-0.616-3.751-1.453-5.858-2.325-5.858h-41.424c-0.872 0-1.709 2.107-2.325 5.858-0.617 3.751-0.963 8.838-0.963 14.142v35.5h48z" fill="#1e1e2e"/><g fill="#a6e3a1"><path transform="matrix(.88177 0 0 .97674 984.09 533.07)" d="m448 149.02c0-9.395-8.449-17.022-18.855-17.022h-165.29c-10.406 0-18.855 7.627-18.855 17.022v8.956c0 9.395 8.449 17.022 18.855 17.022h165.29c10.406 0 18.855-7.627 18.855-17.022z"/><path transform="matrix(.87192 0 0 .97674 33.379 178.07)" d="m448 149.02c0-9.395-8.544-17.022-19.068-17.022h-164.86c-10.524 0-19.068 7.627-19.068 17.022v8.956c0 9.395 8.544 17.022 19.068 17.022h164.86c10.524 0 19.068-7.627 19.068-17.022z"/><path transform="matrix(1.9557 0 0 .97674 646.86 255.07)" d="m448 149.02c0-9.395-3.809-17.022-8.501-17.022h-186c-4.692 0-8.501 7.627-8.501 17.022v8.956c0 9.395 3.809 17.022 8.501 17.022h186c4.692 0 8.501-7.627 8.501-17.022z"/><path transform="matrix(.8867 0 0 .97674 982.76 532.07)" d="m448 149.02c0-9.395-8.402-17.022-18.75-17.022h-165.5c-10.348 0-18.75 7.627-18.75 17.022v8.956c0 9.395 8.402 17.022 18.75 17.022h165.5c10.348 0 18.75-7.627 18.75-17.022z"/></g><path transform="matrix(.98768 0 0 .97674 5.0172 3.5698)" d="m448 149.02c0-9.395-7.543-17.022-16.833-17.022h-169.33c-9.29 0-16.833 7.627-16.833 17.022v8.956c0 9.395 7.543 17.022 16.833 17.022h169.33c9.29 0 16.833-7.627 16.833-17.022z" fill="#f5c2e7"/><path transform="matrix(.22168 0 0 .97674 569.19 463.07)" d="m448 149.02c0-9.395-33.607-17.022-75.001-17.022h-52.998c-41.394 0-75.001 7.627-75.001 17.022v8.956c0 9.395 33.607 17.022 75.001 17.022h52.998c41.394 0 75.001-7.627 75.001-17.022z" fill="#f5c2e7"/><path transform="matrix(1.4975 0 0 .97674 256.6 47.57)" d="m448 149.02c0-9.395-4.975-17.022-11.102-17.022h-180.8c-6.127 0-11.102 7.627-11.102 17.022v8.956c0 9.395 4.975 17.022 11.102 17.022h180.8c6.127 0 11.102-7.627 11.102-17.022z" fill="#6c7086"/><path transform="matrix(2.0098 0 0 .97674 131.09 394.07)" d="m448 149.02c0-9.395-3.707-17.022-8.272-17.022h-186.46c-4.565 0-8.272 7.627-8.272 17.022v8.956c0 9.395 3.707 17.022 8.272 17.022h186.46c4.565 0 8.272-7.627 8.272-17.022z" fill="#6c7086"/><path transform="matrix(.92611 0 0 .97674 837.6 463.07)" d="m448 149.02c0-9.395-8.044-17.022-17.952-17.022h-167.1c-9.908 0-17.952 7.627-17.952 17.022v8.956c0 9.395 8.044 17.022 17.952 17.022h167.1c9.908 0 17.952-7.627 17.952-17.022z" fill="#f2cdcd"/><path transform="matrix(.35468 0 0 .97674 617.6 533.07)" d="m448 149.02c0-9.395-21.004-17.022-46.875-17.022h-109.25c-25.871 0-46.875 7.627-46.875 17.022v8.956c0 9.395 21.004 17.022 46.875 17.022h109.25c25.871 0 46.875-7.627 46.875-17.022z" fill="#f2cdcd"/><path transform="matrix(.99507 0 0 .97674 561.71 601.07)" d="m448 149.02c0-9.395-7.487-17.022-16.708-17.022h-169.58c-9.221 0-16.708 7.627-16.708 17.022v8.956c0 9.395 7.487 17.022 16.708 17.022h169.58c9.221 0 16.708-7.627 16.708-17.022z" fill="#f5c2e7"/><path transform="matrix(.36946 0 0 .97674 532.98 739.07)" d="m448 149.02c0-9.395-20.164-17.022-45-17.022h-113c-24.836 0-45 7.627-45 17.022v8.956c0 9.395 20.164 17.022 45 17.022h113c24.836 0 45-7.627 45-17.022z" fill="#f5c2e7"/><path transform="matrix(.68966 0 0 .97674 865.53 601.07)" d="m448 149.02c0-9.395-10.802-17.022-24.107-17.022h-154.79c-13.305 0-24.107 7.627-24.107 17.022v8.956c0 9.395 10.802 17.022 24.107 17.022h154.79c13.305 0 24.107-7.627 24.107-17.022z" fill="#fab387"/><path transform="matrix(.16749 0 0 .97674 1110.2 533.07)" d="m448 145.78c0-7.605-36.007-13.779-80.358-13.779h-42.284c-44.351 0-80.358 6.174-80.358 13.779v15.442c0 7.605 36.007 13.779 80.358 13.779h42.284c44.351 0 80.358-6.174 80.358-13.779z" fill="#94e2d5"/><path transform="matrix(.22168 0 0 .97674 995.69 255.07)" d="m448 149.02c0-9.395-33.607-17.022-75.001-17.022h-52.998c-41.394 0-75.001 7.627-75.001 17.022v8.956c0 9.395 33.607 17.022 75.001 17.022h52.998c41.394 0 75.001-7.627 75.001-17.022z" fill="#94e2d5"/><g fill="#f38ba8"><path transform="matrix(.35961 0 0 .97674 615.4 671.07)" d="m448 149.02c0-9.395-20.716-17.022-46.233-17.022h-110.53c-25.517 0-46.233 7.627-46.233 17.022v8.956c0 9.395 20.716 17.022 46.233 17.022h110.53c25.517 0 46.233-7.627 46.233-17.022z"/><path transform="matrix(.25616 0 0 .97674 560.24 255.07)" d="m448 149.02c0-9.395-29.083-17.022-64.904-17.022h-73.192c-35.821 0-64.904 7.627-64.904 17.022v8.956c0 9.395 29.083 17.022 64.904 17.022h73.192c35.821 0 64.904-7.627 64.904-17.022z"/><path transform="matrix(.25616 0 0 .97674 560.24 186.07)" d="m448 149.02c0-9.395-29.083-17.022-64.904-17.022h-73.192c-35.821 0-64.904 7.627-64.904 17.022v8.956c0 9.395 29.083 17.022 64.904 17.022h73.192c35.821 0 64.904-7.627 64.904-17.022z"/><path transform="matrix(.35468 0 0 .97674 1315.2 533.07)" d="m448 149.02c0-9.395-21.004-17.022-46.875-17.022h-109.25c-25.871 0-46.875 7.627-46.875 17.022v8.956c0 9.395 21.004 17.022 46.875 17.022h109.25c25.871 0 46.875-7.627 46.875-17.022z"/></g><path transform="matrix(.85222 0 0 .97674 -16.793 410.07)" d="m448 149.02c0-9.395-8.742-17.022-19.509-17.022h-163.98c-10.767 0-19.509 7.627-19.509 17.022v8.956c0 9.395 8.742 17.022 19.509 17.022h163.98c10.767 0 19.509-7.627 19.509-17.022z" fill="#f9e2af"/><path transform="matrix(.35468 0 0 .97674 873.1 186.07)" d="m448 149.02c0-9.395-21.004-17.022-46.875-17.022h-109.25c-25.871 0-46.875 7.627-46.875 17.022v8.956c0 9.395 21.004 17.022 46.875 17.022h109.25c25.871 0 46.875-7.627 46.875-17.022z" fill="#f9e2af"/><path transform="matrix(1.5961 0 0 .97674 414.47 533.07)" d="m448 149.02c0-9.395-4.668-17.022-10.417-17.022h-182.17c-5.749 0-10.417 7.627-10.417 17.022v8.956c0 9.395 4.668 17.022 10.417 17.022h182.17c5.749 0 10.417-7.627 10.417-17.022z" fill="#cdd6f4"/><path transform="matrix(1.0788 0 0 .97674 443.69 186.07)" d="m448 149.02c0-9.395-6.905-17.022-15.411-17.022h-172.18c-8.506 0-15.411 7.627-15.411 17.022v8.956c0 9.395 6.905 17.022 15.411 17.022h172.18c8.506 0 15.411-7.627 15.411-17.022z" fill="#f5e0dc"/><path transform="matrix(1.5961 0 0 .97674 304.97 255.07)" d="m448 149.02c0-9.395-4.668-17.022-10.417-17.022h-182.17c-5.749 0-10.417 7.627-10.417 17.022v8.956c0 9.395 4.668 17.022 10.417 17.022h182.17c5.749 0 10.417-7.627 10.417-17.022z" fill="#cdd6f4"/><path transform="matrix(2.0098 0 0 .97674 131.09 325.57)" d="m448 149.02c0-9.395-3.707-17.022-8.272-17.022h-186.46c-4.565 0-8.272 7.627-8.272 17.022v8.956c0 9.395 3.707 17.022 8.272 17.022h186.46c4.565 0 8.272-7.627 8.272-17.022z" fill="#a6adc8"/><path transform="matrix(.62069 0 0 .97674 36.931 120.07)" d="m448 149.02c0-9.395-12.002-17.022-26.786-17.022h-149.43c-14.784 0-26.786 7.627-26.786 17.022v8.956c0 9.395 12.002 17.022 26.786 17.022h149.43c14.784 0 26.786-7.627 26.786-17.022z" fill="#89dceb"/><path transform="matrix(1.6749 0 0 .97674 289.16 463.07)" d="m448 149.02c0-9.395-4.448-17.022-9.927-17.022h-183.15c-5.479 0-9.927 7.627-9.927 17.022v8.956c0 9.395 4.448 17.022 9.927 17.022h183.15c5.479 0 9.927-7.627 9.927-17.022z" fill="#74c7ec"/><path transform="matrix(1.069 0 0 .97674 -69.897 468.07)" d="m448 149.02c0-9.395-6.969-17.022-15.553-17.022h-171.89c-8.584 0-15.553 7.627-15.553 17.022v8.956c0 9.395 6.969 17.022 15.553 17.022h171.89c8.584 0 15.553-7.627 15.553-17.022z" fill="#eba0ac"/><path transform="matrix(.61084 0 0 .97674 97.345 236.07)" d="m448 149.02c0-9.395-12.196-17.022-27.218-17.022h-148.56c-15.022 0-27.218 7.627-27.218 17.022v8.956c0 9.395 12.196 17.022 27.218 17.022h148.56c15.022 0 27.218-7.627 27.218-17.022z" fill="#89b4fa"/><path transform="matrix(.65517 0 0 .97674 140.48 294.07)" d="m448 149.02c0-9.395-11.371-17.022-25.376-17.022h-152.25c-14.005 0-25.376 7.627-25.376 17.022v8.956c0 9.395 11.371 17.022 25.376 17.022h152.25c14.005 0 25.376-7.627 25.376-17.022z" fill="#cba6f7"/><path transform="matrix(1 0 0 .97674 -53 352.07)" d="m448 149.02c0-9.395-7.45-17.022-16.626-17.022h-169.75c-9.176 0-16.626 7.627-16.626 17.022v8.956c0 9.395 7.45 17.022 16.626 17.022h169.75c9.176 0 16.626-7.627 16.626-17.022z" fill="#f2cdcd"/></g><g transform="translate(.81356 849.92)"><g transform="translate(-120,-89)" clip-path="url(#a-9)"><path transform="matrix(1.7385 0 0 1.8137 -88.621 -72.42)" d="m1099 107.17c0-10.027-8.49-18.167-18.95-18.167h-941.1c-10.46 0-18.952 8.14-18.952 18.167v430.67c0 10.027 8.492 18.167 18.952 18.167h941.1c10.46 0 18.95-8.14 18.95-18.167z" fill="#eff1f5"/><path transform="matrix(3.6613 0 0 7.8426 -319.36 -608.99)" d="m120 89h124v108h-124z" fill="#dce0e8"/><path transform="matrix(1.0435 0 0 1.2759 -24.956 -24.552)" d="m574 89h1196v43.5h-1196z" fill="#e6e9ef"/><path transform="matrix(6.0833 0 0 1 -3234 9)" d="m684 109c0-5.304-0.346-10.391-0.963-14.142-0.616-3.751-1.453-5.858-2.325-5.858h-41.424c-0.872 0-1.709 2.107-2.325 5.858-0.617 3.751-0.963 8.838-0.963 14.142v35.5h48z" fill="#eff1f5"/><g fill="#40a02b"><path transform="matrix(.88177 0 0 .97674 984.09 533.07)" d="m448 149.02c0-9.395-8.449-17.022-18.855-17.022h-165.29c-10.406 0-18.855 7.627-18.855 17.022v8.956c0 9.395 8.449 17.022 18.855 17.022h165.29c10.406 0 18.855-7.627 18.855-17.022z"/><path transform="matrix(.87192 0 0 .97674 33.379 178.07)" d="m448 149.02c0-9.395-8.544-17.022-19.068-17.022h-164.86c-10.524 0-19.068 7.627-19.068 17.022v8.956c0 9.395 8.544 17.022 19.068 17.022h164.86c10.524 0 19.068-7.627 19.068-17.022z"/><path transform="matrix(1.9557 0 0 .97674 646.86 255.07)" d="m448 149.02c0-9.395-3.809-17.022-8.501-17.022h-186c-4.692 0-8.501 7.627-8.501 17.022v8.956c0 9.395 3.809 17.022 8.501 17.022h186c4.692 0 8.501-7.627 8.501-17.022z"/><path transform="matrix(.8867 0 0 .97674 982.76 532.07)" d="m448 149.02c0-9.395-8.402-17.022-18.75-17.022h-165.5c-10.348 0-18.75 7.627-18.75 17.022v8.956c0 9.395 8.402 17.022 18.75 17.022h165.5c10.348 0 18.75-7.627 18.75-17.022z"/></g><path transform="matrix(.98768 0 0 .97674 5.0172 3.5698)" d="m448 149.02c0-9.395-7.543-17.022-16.833-17.022h-169.33c-9.29 0-16.833 7.627-16.833 17.022v8.956c0 9.395 7.543 17.022 16.833 17.022h169.33c9.29 0 16.833-7.627 16.833-17.022z" fill="#ea76cb"/><path transform="matrix(.22168 0 0 .97674 569.19 463.07)" d="m448 149.02c0-9.395-33.607-17.022-75.001-17.022h-52.998c-41.394 0-75.001 7.627-75.001 17.022v8.956c0 9.395 33.607 17.022 75.001 17.022h52.998c41.394 0 75.001-7.627 75.001-17.022z" fill="#ea76cb"/><path transform="matrix(1.4975 0 0 .97674 256.6 47.57)" d="m448 149.02c0-9.395-4.975-17.022-11.102-17.022h-180.8c-6.127 0-11.102 7.627-11.102 17.022v8.956c0 9.395 4.975 17.022 11.102 17.022h180.8c6.127 0 11.102-7.627 11.102-17.022z" fill="#9ca0b0"/><path transform="matrix(2.0098 0 0 .97674 131.09 394.07)" d="m448 149.02c0-9.395-3.707-17.022-8.272-17.022h-186.46c-4.565 0-8.272 7.627-8.272 17.022v8.956c0 9.395 3.707 17.022 8.272 17.022h186.46c4.565 0 8.272-7.627 8.272-17.022z" fill="#9ca0b0"/><path transform="matrix(.92611 0 0 .97674 837.6 463.07)" d="m448 149.02c0-9.395-8.044-17.022-17.952-17.022h-167.1c-9.908 0-17.952 7.627-17.952 17.022v8.956c0 9.395 8.044 17.022 17.952 17.022h167.1c9.908 0 17.952-7.627 17.952-17.022z" fill="#dd7878"/><path transform="matrix(.35468 0 0 .97674 617.6 533.07)" d="m448 149.02c0-9.395-21.004-17.022-46.875-17.022h-109.25c-25.871 0-46.875 7.627-46.875 17.022v8.956c0 9.395 21.004 17.022 46.875 17.022h109.25c25.871 0 46.875-7.627 46.875-17.022z" fill="#dd7878"/><path transform="matrix(.99507 0 0 .97674 561.71 601.07)" d="m448 149.02c0-9.395-7.487-17.022-16.708-17.022h-169.58c-9.221 0-16.708 7.627-16.708 17.022v8.956c0 9.395 7.487 17.022 16.708 17.022h169.58c9.221 0 16.708-7.627 16.708-17.022z" fill="#ea76cb"/><path transform="matrix(.36946 0 0 .97674 532.98 739.07)" d="m448 149.02c0-9.395-20.164-17.022-45-17.022h-113c-24.836 0-45 7.627-45 17.022v8.956c0 9.395 20.164 17.022 45 17.022h113c24.836 0 45-7.627 45-17.022z" fill="#ea76cb"/><path transform="matrix(.68966 0 0 .97674 865.53 601.07)" d="m448 149.02c0-9.395-10.802-17.022-24.107-17.022h-154.79c-13.305 0-24.107 7.627-24.107 17.022v8.956c0 9.395 10.802 17.022 24.107 17.022h154.79c13.305 0 24.107-7.627 24.107-17.022z" fill="#fe640b"/><path transform="matrix(.16749 0 0 .97674 1110.2 533.07)" d="m448 145.78c0-7.605-36.007-13.779-80.358-13.779h-42.284c-44.351 0-80.358 6.174-80.358 13.779v15.442c0 7.605 36.007 13.779 80.358 13.779h42.284c44.351 0 80.358-6.174 80.358-13.779z" fill="#179299"/><path transform="matrix(.22168 0 0 .97674 995.69 255.07)" d="m448 149.02c0-9.395-33.607-17.022-75.001-17.022h-52.998c-41.394 0-75.001 7.627-75.001 17.022v8.956c0 9.395 33.607 17.022 75.001 17.022h52.998c41.394 0 75.001-7.627 75.001-17.022z" fill="#179299"/><g fill="#d20f39"><path transform="matrix(.35961 0 0 .97674 615.4 671.07)" d="m448 149.02c0-9.395-20.716-17.022-46.233-17.022h-110.53c-25.517 0-46.233 7.627-46.233 17.022v8.956c0 9.395 20.716 17.022 46.233 17.022h110.53c25.517 0 46.233-7.627 46.233-17.022z"/><path transform="matrix(.25616 0 0 .97674 560.24 255.07)" d="m448 149.02c0-9.395-29.083-17.022-64.904-17.022h-73.192c-35.821 0-64.904 7.627-64.904 17.022v8.956c0 9.395 29.083 17.022 64.904 17.022h73.192c35.821 0 64.904-7.627 64.904-17.022z"/><path transform="matrix(.25616 0 0 .97674 560.24 186.07)" d="m448 149.02c0-9.395-29.083-17.022-64.904-17.022h-73.192c-35.821 0-64.904 7.627-64.904 17.022v8.956c0 9.395 29.083 17.022 64.904 17.022h73.192c35.821 0 64.904-7.627 64.904-17.022z"/><path transform="matrix(.35468 0 0 .97674 1315.2 533.07)" d="m448 149.02c0-9.395-21.004-17.022-46.875-17.022h-109.25c-25.871 0-46.875 7.627-46.875 17.022v8.956c0 9.395 21.004 17.022 46.875 17.022h109.25c25.871 0 46.875-7.627 46.875-17.022z"/></g><path transform="matrix(.85222 0 0 .97674 -16.793 410.07)" d="m448 149.02c0-9.395-8.742-17.022-19.509-17.022h-163.98c-10.767 0-19.509 7.627-19.509 17.022v8.956c0 9.395 8.742 17.022 19.509 17.022h163.98c10.767 0 19.509-7.627 19.509-17.022z" fill="#df8e1d"/><path transform="matrix(.35468 0 0 .97674 873.1 186.07)" d="m448 149.02c0-9.395-21.004-17.022-46.875-17.022h-109.25c-25.871 0-46.875 7.627-46.875 17.022v8.956c0 9.395 21.004 17.022 46.875 17.022h109.25c25.871 0 46.875-7.627 46.875-17.022z" fill="#df8e1d"/><path transform="matrix(1.5961 0 0 .97674 414.47 533.07)" d="m448 149.02c0-9.395-4.668-17.022-10.417-17.022h-182.17c-5.749 0-10.417 7.627-10.417 17.022v8.956c0 9.395 4.668 17.022 10.417 17.022h182.17c5.749 0 10.417-7.627 10.417-17.022z" fill="#4c4f69"/><path transform="matrix(1.0788 0 0 .97674 443.69 186.07)" d="m448 149.02c0-9.395-6.905-17.022-15.411-17.022h-172.18c-8.506 0-15.411 7.627-15.411 17.022v8.956c0 9.395 6.905 17.022 15.411 17.022h172.18c8.506 0 15.411-7.627 15.411-17.022z" fill="#dc8a78"/><path transform="matrix(1.5961 0 0 .97674 304.97 255.07)" d="m448 149.02c0-9.395-4.668-17.022-10.417-17.022h-182.17c-5.749 0-10.417 7.627-10.417 17.022v8.956c0 9.395 4.668 17.022 10.417 17.022h182.17c5.749 0 10.417-7.627 10.417-17.022z" fill="#4c4f69"/><path transform="matrix(2.0098 0 0 .97674 131.09 325.57)" d="m448 149.02c0-9.395-3.707-17.022-8.272-17.022h-186.46c-4.565 0-8.272 7.627-8.272 17.022v8.956c0 9.395 3.707 17.022 8.272 17.022h186.46c4.565 0 8.272-7.627 8.272-17.022z" fill="#6c6f85"/><path transform="matrix(.62069 0 0 .97674 36.931 120.07)" d="m448 149.02c0-9.395-12.002-17.022-26.786-17.022h-149.43c-14.784 0-26.786 7.627-26.786 17.022v8.956c0 9.395 12.002 17.022 26.786 17.022h149.43c14.784 0 26.786-7.627 26.786-17.022z" fill="#04a5e5"/><path transform="matrix(1.6749 0 0 .97674 289.16 463.07)" d="m448 149.02c0-9.395-4.448-17.022-9.927-17.022h-183.15c-5.479 0-9.927 7.627-9.927 17.022v8.956c0 9.395 4.448 17.022 9.927 17.022h183.15c5.479 0 9.927-7.627 9.927-17.022z" fill="#209fb5"/><path transform="matrix(1.069 0 0 .97674 -69.897 468.07)" d="m448 149.02c0-9.395-6.969-17.022-15.553-17.022h-171.89c-8.584 0-15.553 7.627-15.553 17.022v8.956c0 9.395 6.969 17.022 15.553 17.022h171.89c8.584 0 15.553-7.627 15.553-17.022z" fill="#e64553"/><path transform="matrix(.61084 0 0 .97674 97.345 236.07)" d="m448 149.02c0-9.395-12.196-17.022-27.218-17.022h-148.56c-15.022 0-27.218 7.627-27.218 17.022v8.956c0 9.395 12.196 17.022 27.218 17.022h148.56c15.022 0 27.218-7.627 27.218-17.022z" fill="#1e66f5"/><path transform="matrix(.65517 0 0 .97674 140.48 294.07)" d="m448 149.02c0-9.395-11.371-17.022-25.376-17.022h-152.25c-14.005 0-25.376 7.627-25.376 17.022v8.956c0 9.395 11.371 17.022 25.376 17.022h152.25c14.005 0 25.376-7.627 25.376-17.022z" fill="#8839ef"/><path transform="matrix(1 0 0 .97674 -53 352.07)" d="m448 149.02c0-9.395-7.45-17.022-16.626-17.022h-169.75c-9.176 0-16.626 7.627-16.626 17.022v8.956c0 9.395 7.45 17.022 16.626 17.022h169.75c9.176 0 16.626-7.627 16.626-17.022z" fill="#dd7878"/></g></g></svg>
