<?xml version="1.0" encoding="UTF-8" standalone="no"?>
<svg
   width="775"
   height="786.0141"
   viewBox="0 0 775 786.0141"
   version="1.1"
   id="svg9"
   sodipodi:docname="editors.svg"
   inkscape:version="1.4 (e7c3feb100, 2024-10-09)"
   xmlns:inkscape="http://www.inkscape.org/namespaces/inkscape"
   xmlns:sodipodi="http://sodipodi.sourceforge.net/DTD/sodipodi-0.dtd"
   xmlns="http://www.w3.org/2000/svg"
   xmlns:svg="http://www.w3.org/2000/svg"
   xmlns:rdf="http://www.w3.org/1999/02/22-rdf-syntax-ns#"
   xmlns:cc="http://creativecommons.org/ns#"
   xmlns:dc="http://purl.org/dc/elements/1.1/"
   xmlns:sketch="http://www.bohemiancoding.com/sketch/ns">
  <sodipodi:namedview
     id="namedview9"
     pagecolor="#ffffff"
     bordercolor="#000000"
     borderopacity="0.25"
     inkscape:showpageshadow="2"
     inkscape:pageopacity="0.0"
     inkscape:pagecheckerboard="0"
     inkscape:deskcolor="#d1d1d1"
     inkscape:zoom="0.68"
     inkscape:cx="368.38235"
     inkscape:cy="492.64706"
     inkscape:window-width="1893"
     inkscape:window-height="1174"
     inkscape:window-x="0"
     inkscape:window-y="0"
     inkscape:window-maximized="0"
     inkscape:current-layer="svg9" />
  <title
     id="title1">neovim-logo@2x</title>
  <description>Created with Sketch (http://www.bohemiancoding.com/sketch)</description>
  <defs
     id="defs6">
    <linearGradient
       x1="49.021549"
       y1="-0.079835393"
       x2="49.021549"
       y2="97.845657"
       id="linearGradient-1"
       gradientTransform="scale(0.46153975,2.1666606)"
       gradientUnits="userSpaceOnUse">
      <stop
         stop-color="#16B0ED"
         stop-opacity="0.800235524"
         offset="0%"
         id="stop1" />
      <stop
         stop-color="#0F59B2"
         stop-opacity="0.83700023"
         offset="100%"
         id="stop2" />
    </linearGradient>
    <linearGradient
       x1="326.17365"
       y1="-0.069164939"
       x2="326.17365"
       y2="98.851547"
       id="linearGradient-2"
       gradientTransform="scale(0.46628455,2.1446132)"
       gradientUnits="userSpaceOnUse">
      <stop
         stop-color="#7DB643"
         offset="0%"
         id="stop3" />
      <stop
         stop-color="#367533"
         offset="100%"
         id="stop4" />
    </linearGradient>
    <linearGradient
       x1="103.88479"
       y1="-0.11508822"
       x2="103.88479"
       y2="178.55785"
       id="linearGradient-3"
       gradientTransform="scale(0.84203823,1.1875945)"
       gradientUnits="userSpaceOnUse">
      <stop
         stop-color="#88C649"
         stop-opacity="0.8"
         offset="0%"
         id="stop5" />
      <stop
         stop-color="#439240"
         stop-opacity="0.84"
         offset="100%"
         id="stop6" />
    </linearGradient>
  </defs>
  <g
     id="mark"
     sketch:type="MSLayerGroup"
     transform="translate(-0.0271406,260.17647)"
     style="fill:none;fill-rule:evenodd;stroke:none;stroke-width:1">
    <path
       d="M 0.02714063,45.458544 45.223647,-0.17297621 45.223646,211.99833 0.02714063,166.89384 Z"
       id="Left---green"
       fill="url(#linearGradient-1)"
       sketch:type="MSShapeGroup"
       style="fill:url(#linearGradient-1)" />
    <path
       d="M 129.33671,45.889361 175.15234,-0.14833204 174.22365,211.99833 129.02714,166.89384 Z"
       id="Right---blue"
       fill="url(#linearGradient-2)"
       sketch:type="MSShapeGroup"
       transform="matrix(-1,0,0,1,304,0)"
       style="fill:url(#linearGradient-2)" />
    <path
       d="M 45.193511,-0.13667814 162.69969,179.17338 129.81792,212.05433 12.250244,33.141173 Z"
       id="Cross---blue"
       fill="url(#linearGradient-3)"
       sketch:type="MSShapeGroup"
       style="fill:url(#linearGradient-3)" />
    <path
       d="m 45.233948,83.032105 -0.0625,7.0625 -36.2805789,-53.5625 3.3593749,-3.422181 z"
       id="Shadow"
       fill-opacity="0.13"
       fill="#000000"
       sketch:type="MSShapeGroup" />
  </g>
  <g
     id="wordmark"
     sketch:type="MSLayerGroup"
     transform="translate(225.97286,289.17647)"
     fill="#444444"
     style="fill:#b3b3b3;fill-rule:evenodd;stroke:none;stroke-width:1">
    <g
       id="Group"
       sketch:type="MSShapeGroup"
       style="fill:#b3b3b3">
      <g
         transform="translate(0,29)"
         id="g9"
         style="fill:#b3b3b3">
        <path
           d="M 0,95 V 5.4401583 h 4.6547315 c 1.5503836,0 2.4455242,0.7506824 2.6854219,2.2502472 L 8.1457801,21.191889 C 12.204348,16.032522 16.932481,11.875866 22.33376,8.7255193 27.733248,5.5751731 33.746803,4 40.370844,4 c 4.892839,0 9.205627,0.7812859 12.934783,2.3402572 3.729156,1.5607715 6.817391,3.8110188 9.264705,6.7507418 2.447315,2.941523 4.296676,6.480712 5.549873,10.621167 C 69.373401,27.852621 70,32.533135 70,37.753709 V 95 H 61.496164 V 37.753709 c 0,-8.401523 -1.91023,-14.986647 -5.728901,-19.757171 -3.82046,-4.770524 -9.667519,-7.155786 -17.544757,-7.155786 -5.850639,0 -11.278772,1.515766 -16.29156,4.545499 -5.012787,3.031533 -9.488491,7.18639 -13.4271097,12.46637 V 95 Z"
           id="Shape"
           style="fill:#b3b3b3" />
        <path
           d="m 123.62381,4 c 5.06667,0 9.75514,0.8678906 14.06905,2.6054687 4.31209,1.7375782 8.05238,4.2675783 11.21904,7.5917973 3.16667,3.324218 5.63848,7.412109 7.41905,12.263671 C 158.10971,31.3125 159,36.882812 159,43.171875 c 0,1.317109 -0.19543,2.215547 -0.5881,2.695312 -0.39266,0.479766 -1.00971,0.71875 -1.85114,0.71875 H 91.595238 v 1.707032 c 0,6.707734 0.783524,12.608672 2.352381,17.699218 1.567048,5.090547 3.8,9.358125 6.695241,12.802735 2.89524,3.444609 6.39305,6.033906 10.49524,7.771484 4.10038,1.737578 8.68571,2.605469 13.75238,2.605469 4.52381,0 8.44504,-0.494141 11.7619,-1.482422 3.31686,-0.988281 6.10714,-2.096953 8.36905,-3.324219 2.2619,-1.227265 4.05695,-2.335937 5.38333,-3.324218 1.32638,-0.988282 2.29267,-1.482422 2.89524,-1.482422 0.78352,0 1.3879,0.300078 1.80952,0.898437 l 2.35238,2.875 c -1.44761,1.796875 -3.36209,3.475156 -5.74523,5.03125 -2.38315,1.557891 -5.03772,2.891172 -7.96191,3.998047 -2.926,1.108672 -6.0619,1.990938 -9.40952,2.650391 C 130.99762,95.669375 127.63552,96 124.25714,96 118.10476,96 112.49524,94.93625 107.42857,92.810547 102.3619,90.684844 98.013619,87.585234 94.385524,83.511719 90.755619,79.438203 87.950857,74.451875 85.971238,68.552734 83.98981,62.653594 83,55.899141 83,48.292969 83,41.885312 83.919238,35.97 85.759524,30.548828 87.59981,25.127656 90.252571,20.455781 93.721429,16.533203 97.188476,12.610625 101.44086,9.5415625 106.47857,7.3242187 111.51267,5.1086719 117.22895,4 123.62381,4 Z m 0.57283,6 c -4.69557,0 -8.90382,0.701754 -12.6229,2.105263 -3.72092,1.403509 -6.93618,3.421053 -9.64947,6.052632 -2.713278,2.631579 -4.908087,5.789473 -6.586255,9.473684 C 93.659847,31.315789 92.549618,35.438597 92,40 h 60 c 0,-4.678947 -0.67237,-8.873684 -2.01343,-12.587719 -1.34291,-3.712281 -3.23176,-6.856141 -5.67023,-9.429825 -2.43848,-2.57193 -5.36611,-4.545614 -8.78107,-5.921052 C 132.12214,10.687719 128.34259,10 124.19664,10 Z"
           id="path6"
           style="fill:#b3b3b3" />
        <path
           d="m 208.54576,4 c 6.52652,0 12.36855,1.0925 17.52425,3.2792969 5.15387,2.1867969 9.50062,5.2864061 13.04024,9.2988281 3.5378,4.012422 6.23736,8.849609 8.09868,14.509766 1.86132,5.660156 2.79107,11.99414 2.79107,19.001953 0,7.007812 -0.93158,13.327422 -2.79107,18.957031 -1.86132,5.631406 -4.56088,10.452422 -8.09868,14.464844 -3.53962,4.012422 -7.88637,7.097656 -13.04024,9.253906 C 220.91431,94.921875 215.07228,96 208.54576,96 202.0174,96 196.1772,94.921875 191.0215,92.765625 c -5.1557,-2.15625 -9.51709,-5.241484 -13.086,-9.253906 -3.56891,-4.012422 -6.28494,-8.835235 -8.14443,-14.464844 C 167.92975,63.417266 167,57.097656 167,50.089844 c 0,-7.007813 0.92975,-13.341797 2.79107,-19.001953 1.86132,-5.660157 4.57552,-10.495547 8.14443,-14.509766 3.56891,-4.012422 7.9303,-7.1120312 13.086,-9.2988281 C 196.1772,5.0942969 202.0174,4 208.54576,4 Z m -0.50075,86 c 5.34143,0 10.00596,-0.918352 13.99718,-2.756865 3.98943,-1.838513 7.31995,-4.474256 9.99157,-7.909039 2.66981,-3.434782 4.66452,-7.576407 5.98593,-12.42849 C 239.3375,62.055332 240,56.617529 240,50.590389 c 0,-5.965675 -0.6607,-11.389016 -1.98031,-16.270023 -1.32141,-4.881007 -3.31612,-9.053364 -5.98593,-12.518879 -2.66982,-3.463707 -6.00034,-6.130183 -9.99157,-7.999427 C 218.05097,11.934622 213.38464,11 208.04501,11 c -5.33964,0 -10.00777,0.934622 -13.99719,2.80206 -3.99122,1.869244 -7.32174,4.53572 -9.99156,7.999427 -2.67162,3.465515 -4.68073,7.637872 -6.03094,12.518879 C 176.6751,39.201373 176,44.624714 176,50.590389 c 0,6.025332 0.6751,11.464943 2.02532,16.315217 1.35021,4.852083 3.35932,8.993708 6.03094,12.42849 2.66982,3.434783 6.00034,6.070526 9.99156,7.909039 C 198.03724,89.081648 202.70357,90 208.04501,90 Z"
           id="path7"
           style="fill:#b3b3b3" />
        <path
           d="M 303.56978,93 H 283.51973 L 247,1 h 18.34937 c 1.61117,0 2.96813,0.3891618 4.07267,1.165692 1.10275,0.7783236 1.86537,1.762885 2.28248,2.9590643 l 17.72281,49.1384017 c 1.01325,2.869396 1.86537,5.67961 2.55101,8.42885 0.68565,2.751033 1.29789,5.500273 1.83494,8.249512 0.53706,-2.749239 1.14751,-5.498479 1.83494,-8.249512 0.68564,-2.74924 1.56641,-5.559454 2.64052,-8.42885 L 316.45909,5.1247563 C 316.87621,3.928577 317.62271,2.9440156 318.69682,2.165692 319.77093,1.3891618 321.0527,1 322.54572,1 H 340 Z"
           id="path8"
           style="fill:#b3b3b3" />
        <rect
           id="Rectangle"
           x="345"
           y="2"
           width="23"
           height="92"
           style="fill:#b3b3b3" />
        <path
           d="M 383,94 V 1.4433781 h 13.62391 c 2.8868,0 4.77946,1.353167 5.68159,4.059501 l 1.4434,6.8560459 c 1.62383,-1.804223 3.32344,-3.4586947 5.09702,-4.9616121 1.77358,-1.5029175 3.66804,-2.7965452 5.68339,-3.8790787 2.01355,-1.0825336 4.17865,-1.9395394 6.49531,-2.57101731 C 423.33948,0.31573896 425.87986,0 428.64939,0 c 5.83135,0 10.62885,1.5786948 14.38892,4.7360844 3.75825,3.1573897 6.57108,7.3522076 8.43488,12.5844526 1.4434,-3.067178 3.24765,-5.697735 5.41275,-7.8934737 2.16511,-2.1939347 4.54131,-3.9837236 7.1268,-5.3675623 2.58549,-1.3820346 5.33698,-2.4050288 8.25446,-3.06717854 C 475.18287,0.33017275 478.11478,0 481.06293,0 c 5.11144,0 9.65275,0.78303263 13.6221,2.3454894 3.96936,1.5642611 7.30723,3.8484069 10.0136,6.8560461 2.70638,3.0076395 4.76684,6.6756235 6.17957,11.0057585 C 512.29093,24.537428 513,29.49904 513,35.092131 V 94 H 490.71568 V 35.092131 c 0,-5.894396 -1.29365,-10.329175 -3.87734,-13.306143 -2.5873,-2.976967 -6.37623,-4.465451 -11.3686,-4.465451 -2.28598,0 -4.40418,0.391517 -6.35818,1.172745 -1.95581,0.783033 -3.66985,1.910672 -5.14393,3.382918 -1.47227,1.474049 -2.6306,3.323378 -3.47318,5.547984 -0.84259,2.224607 -1.26298,4.78119 -1.26298,7.667947 V 94 H 436.86054 V 35.092131 c 0,-6.193897 -1.24854,-10.704454 -3.74382,-13.53167 -2.49708,-2.825413 -6.17956,-4.239924 -11.05105,-4.239924 -3.18991,0 -6.17956,0.797467 -8.97615,2.390595 -2.7984,1.593129 -5.39833,3.774434 -7.80339,6.540307 V 94 Z"
           id="path9"
           style="fill:#b3b3b3" />
      </g>
      <rect
         id="rect9"
         x="345"
         y="0"
         width="23"
         height="19"
         style="fill:#b3b3b3" />
    </g>
  </g>
  <metadata
     id="metadata9">
    <rdf:RDF>
      <cc:Work
         rdf:about="">
        <dc:title>neovim-logo@2x</dc:title>
      </cc:Work>
    </rdf:RDF>
  </metadata>
  <g
     id="g1"
     transform="matrix(0.35499062,0,0,0.35499062,-234.69732,451.865)">
    <path
       d="m 1083.58,1875.72 551.48,318.4 a 47.66,47.66 0 0 1 23.82,41.27 v 105.94 c 0,8.51 -2.27,16.7 -6.38,23.83 0,0 -437.8,-252.76 -545.3,-314.83 a 47.245,47.245 0 0 1 -23.62,-40.92 z"
       style="clip-rule:evenodd;fill:#706bc8;fill-rule:evenodd;stroke-linejoin:round;stroke-miterlimit:2"
       transform="translate(-420.199,-1838.15)"
       id="path1" />
    <path
       d="m 1635.26,2604.84 a 47.228,47.228 0 0 1 23.62,40.91 v 133.69 l -551.47,-318.39 a 47.66,47.66 0 0 1 -23.83,-41.27 v -105.94 c 0,-8.52 2.27,-16.71 6.38,-23.83 0,0 437.8,252.76 545.3,314.83"
       style="clip-rule:evenodd;fill:#55c5e4;fill-rule:evenodd;stroke-linejoin:round;stroke-miterlimit:2"
       transform="translate(-420.199,-1838.15)"
       id="path2" />
    <path
       d="m 790.407,1432.56 a 35.033,35.033 0 0 0 -12.898,12.9 c -9.647,16.7 -4.036,38.3 12.495,48.13 h -0.006 l -28.825,-16.64 a 47.644,47.644 0 0 1 -23.829,-41.27 v -105.94 c 0,-17.03 9.083,-32.76 23.829,-41.27 l 498.417,-287.73 0.24,-0.14 a 34.962,34.962 0 0 0 12.65,-12.756 c 9.65,-16.708 4.04,-38.3 -12.49,-48.137 h 0.01 l 28.82,16.642 a 47.648,47.648 0 0 1 23.83,41.273 v 105.938 c 0,17.03 -9.08,32.76 -23.83,41.27 l -29.63,17.11 0.4,-0.26 z"
       style="clip-rule:evenodd;fill:#84ddea;fill-rule:evenodd;stroke-linejoin:round;stroke-miterlimit:2"
       transform="translate(-73.964,-854.054)"
       id="path3" />
    <path
       d="m 790.407,1686.24 a 35.08,35.08 0 0 0 -12.898,12.89 c -9.647,16.71 -4.036,38.3 12.495,48.14 h -0.006 l -28.825,-16.64 a 47.656,47.656 0 0 1 -23.829,-41.27 v -105.94 c 0,-17.03 9.083,-32.76 23.829,-41.27 l 498.417,-287.73 0.24,-0.14 c 5.09,-2.99 9.5,-7.29 12.65,-12.76 9.65,-16.71 4.04,-38.3 -12.49,-48.14 h 0.01 l 28.82,16.65 a 47.636,47.636 0 0 1 23.83,41.27 v 105.94 c 0,17.02 -9.08,32.76 -23.83,41.27 l -29.63,17.1 0.4,-0.25 z"
       style="clip-rule:evenodd;fill:#997bc8;fill-rule:evenodd;stroke-linejoin:round;stroke-miterlimit:2"
       transform="translate(-73.964,-854.054)"
       id="path4" />
    <g
       aria-label="Helix"
       style="font-size:4px;-inkscape-font-specification:'sans-serif, Normal';white-space:pre;shape-inside:url(#b);clip-rule:evenodd;display:inline;fill:#f0f6fc;fill-opacity:1;fill-rule:evenodd;stroke:#f0f6fc;stroke-width:2.66687;stroke-linejoin:round;stroke-miterlimit:2;stroke-opacity:1"
       transform="matrix(1.31139,0,0,1.31139,142.024,48.21)"
       id="g5">
      <path
         d="m 1242.072,515.108 h -60.4 v -123.2 h -113.2 v 123.2 h -60.4 v -285.6 h 60.4 v 112 h 113.2 v -112 h 60.4 z m 157.2,-222.4 q 30.4,0 52,11.6 22,11.6 34,33.6 12,22 12,54 v 28.8 h -140.8 q 0.8,25.2 14.8,39.6 14.4,14.4 39.6,14.4 21.2,0 38.4,-4 17.2,-4.4 35.6,-13.2 v 46 q -16,8 -34,11.6 -17.6,4 -42.8,4 -32.8,0 -58,-12 -25.2,-12.4 -39.6,-37.2 -14.4,-24.8 -14.4,-62.4 0,-38.4 12.8,-63.6 13.2,-25.6 36.4,-38.4 23.2,-12.8 54,-12.8 z m 0.4,42.4 q -17.2,0 -28.8,11.2 -11.2,11.2 -13.2,34.8 h 83.6 q 0,-13.2 -4.8,-23.6 -4.4,-10.4 -13.6,-16.4 -9.2,-6 -23.2,-6 z m 205.6,180 h -59.6 v -304 h 59.6 z m 122,-218.4 v 218.4 h -59.6 v -218.4 z m -29.6,-85.6 q 13.2,0 22.8,6.4 9.6,6 9.6,22.8 0,16.4 -9.6,22.8 -9.6,6.4 -22.8,6.4 -13.6,0 -23.2,-6.4 -9.2,-6.4 -9.2,-22.8 0,-16.8 9.2,-22.8 9.6,-6.4 23.2,-6.4 z m 136.8,192.4 -70.4,-106.8 h 67.6 l 42.4,69.6 42.8,-69.6 h 67.6 l -71.2,106.8 74.4,111.6 h -67.6 l -46,-74.8 -46,74.8 h -67.6 z"
         style="font-size:400px;-inkscape-font-specification:'sans-serif, @wght=700';font-variation-settings:'wght' 700;fill:#f0f6fc;fill-opacity:1;stroke:#f0f6fc;stroke-opacity:1"
         id="path5" />
    </g>
  </g>
  <g
     id="g3"
     transform="matrix(2.4677383,0,0,2.4677383,-436.46103,-426.42518)"
     style="fill:#cccccc">
    <path
       d="m 306.8,213.8 v -2.6 c 1.6,-0.1 2.9,-0.4 4.1,-0.8 1.2,-0.4 2.5,-1 4,-1.8 h 2.3 v 5.2 c 2.4,-1.9 4.2,-3.1 5.5,-3.8 2,-1 4,-1.5 5.8,-1.5 1.3,0 2.5,0.2 3.7,0.7 1.2,0.5 2.2,1 2.9,1.7 0.7,0.7 1.4,1.6 1.9,2.8 2.2,-1.9 4.2,-3.3 6,-4 1.9,-0.8 3.7,-1.2 5.6,-1.2 1.8,0 3.4,0.4 4.8,1.1 1.4,0.8 2.4,1.7 3,2.8 0.6,1.1 0.9,2.8 0.9,5 v 14.4 c 0,1.5 0,2.4 0.1,2.6 0.1,0.4 0.3,0.8 0.7,1.1 0.3,0.4 0.7,0.6 1.2,0.7 0.4,0.1 1.2,0.2 2.4,0.2 h 1 v 2.6 h -15.5 v -2.6 c 1.8,0 2.9,-0.1 3.5,-0.4 0.5,-0.2 0.9,-0.6 1.2,-1.2 0.3,-0.6 0.4,-1.6 0.4,-3.2 v -13.7 c 0,-1.7 -0.2,-2.9 -0.5,-3.6 -0.3,-0.7 -0.9,-1.2 -1.7,-1.7 -0.8,-0.4 -1.8,-0.7 -3,-0.7 -1.5,0 -3,0.4 -4.6,1.2 -2.2,1.1 -3.9,2.3 -5.1,3.6 v 14.8 c 0,1.4 0.1,2.4 0.2,2.8 0.1,0.4 0.4,0.8 0.7,1.1 0.3,0.3 0.7,0.5 1.1,0.6 0.4,0.1 1.5,0.2 3.1,0.2 v 2.6 h -15.3 v -2.6 h 0.9 c 1.2,0 2.1,-0.1 2.6,-0.4 0.5,-0.3 0.9,-0.7 1.2,-1.3 0.2,-0.5 0.3,-1.5 0.3,-2.9 v -13.2 c 0,-1.9 -0.2,-3.3 -0.5,-3.9 -0.3,-0.7 -0.9,-1.3 -1.7,-1.7 -0.8,-0.5 -1.8,-0.7 -3,-0.7 -1.3,0 -2.7,0.3 -4.1,1 -2,1 -3.9,2.2 -5.6,3.8 v 15.9 c 0,1 0.1,1.6 0.4,2.1 0.3,0.4 0.7,0.8 1.2,1.1 0.6,0.3 1.3,0.4 2.3,0.4 h 1.1 v 2.6 h -15.6 v -2.6 h 0.8 c 1.4,0 2.4,-0.1 2.8,-0.3 0.7,-0.3 1.1,-0.8 1.4,-1.5 0.2,-0.4 0.2,-1.3 0.2,-2.9 v -18.1 h -5.1 z"
       id="path5-6"
       inkscape:connector-curvature="0"
       style="fill:#cccccc" />
    <path
       d="m 366.4,213.7 v -2.6 c 1.7,-0.2 3.2,-0.5 4.3,-0.9 1.2,-0.4 2.5,-1 4,-1.7 h 2.3 v 24.9 c 0,0.9 0.1,1.5 0.4,2 0.2,0.4 0.6,0.8 1,0.9 0.4,0.2 1.3,0.3 2.4,0.3 h 1.5 v 2.6 h -15.9 v -2.6 h 1.3 c 1.4,0 2.3,-0.1 2.8,-0.4 0.5,-0.2 0.8,-0.6 1,-1.1 0.2,-0.5 0.3,-1.5 0.3,-3.2 v -18.3 h -5.4 z m 7.9,-19.2 c 1,0 1.8,0.3 2.5,1 0.7,0.7 1.1,1.5 1.1,2.5 0,1 -0.4,1.8 -1.1,2.5 -0.7,0.7 -1.6,1.1 -2.5,1.1 -1,0 -1.8,-0.4 -2.5,-1.1 -0.7,-0.7 -1.1,-1.6 -1.1,-2.5 0,-1 0.4,-1.8 1.1,-2.5 0.6,-0.6 1.5,-1 2.5,-1 z"
       id="path7-7"
       inkscape:connector-curvature="0"
       style="fill:#cccccc" />
    <path
       d="m 413.1,230.6 2,1.6 c -3.9,5.2 -8.6,7.8 -14,7.8 -4.2,0 -7.8,-1.5 -10.7,-4.5 -2.9,-3 -4.4,-6.8 -4.4,-11.3 0,-3 0.7,-5.7 2,-8.1 1.3,-2.4 3.2,-4.2 5.6,-5.6 2.4,-1.3 5.2,-2 8.3,-2 3.6,0 6.5,0.9 8.9,2.6 2.4,1.7 3.6,3.5 3.6,5.3 0,1 -0.3,1.7 -0.8,2.2 -0.5,0.5 -1.2,0.8 -1.9,0.8 -0.4,0 -0.7,-0.1 -1.1,-0.3 -0.4,-0.2 -0.7,-0.5 -1.1,-0.9 -0.2,-0.2 -0.5,-0.8 -0.9,-1.7 -0.6,-1.2 -1,-2 -1.3,-2.4 -0.6,-0.8 -1.4,-1.5 -2.4,-2 -0.9,-0.5 -2,-0.7 -3.1,-0.7 -1.8,0 -3.4,0.5 -4.9,1.5 -1.5,1 -2.7,2.4 -3.6,4.3 -0.9,1.9 -1.3,4.2 -1.3,6.8 0,4.1 1.1,7.3 3.3,9.7 1.9,2.1 4.1,3.1 6.7,3.1 1.2,0 2.4,-0.2 3.6,-0.6 1.2,-0.4 2.4,-1 3.5,-1.8 0.9,-0.6 2.2,-1.8 4,-3.8 z"
       id="path9-5"
       inkscape:connector-curvature="0"
       style="fill:#cccccc" />
    <path
       d="m 418.7,213.7 v -2.6 c 1.5,-0.1 2.8,-0.4 4,-0.8 1.2,-0.4 2.5,-1 4,-1.9 h 2.3 v 5.9 c 1.5,-1.8 3.2,-3.2 5.1,-4.3 1.9,-1.1 3.7,-1.6 5.2,-1.6 1.5,0 2.7,0.4 3.6,1.1 0.9,0.7 1.3,1.6 1.3,2.6 0,0.7 -0.3,1.4 -0.9,2 -0.6,0.6 -1.3,0.9 -2.1,0.9 -0.4,0 -0.7,-0.1 -1,-0.2 -0.3,-0.1 -0.7,-0.3 -1.2,-0.7 -1.1,-0.7 -2.1,-1.1 -2.9,-1.1 -1,0 -2.2,0.4 -3.4,1.3 -1.6,1.1 -2.8,2.2 -3.7,3.3 V 232 c 0,1.2 0.1,2.1 0.2,2.5 0.1,0.4 0.4,0.8 0.7,1.1 0.3,0.3 0.7,0.6 1.1,0.7 0.5,0.1 1.3,0.2 2.4,0.2 h 1 v 2.6 h -16 v -2.6 h 1.3 c 1.3,0 2.1,-0.1 2.5,-0.3 0.5,-0.3 0.9,-0.7 1.2,-1.3 0.3,-0.5 0.4,-1.5 0.4,-3 v -18.3 h -5.1 z"
       id="path11"
       inkscape:connector-curvature="0"
       style="fill:#cccccc" />
    <path
       d="m 462.8,208.5 c 3,0 5.7,0.6 7.9,1.9 2.2,1.3 4,3.1 5.3,5.5 1.3,2.4 1.9,5.2 1.9,8.3 0,3.1 -0.7,5.9 -2,8.3 -1.3,2.4 -3.1,4.3 -5.4,5.5 -2.3,1.3 -5,1.9 -8.1,1.9 -5,0 -8.8,-1.6 -11.3,-4.7 -2.5,-3.1 -3.8,-6.8 -3.8,-11 0,-3.1 0.7,-5.8 2,-8.2 1.3,-2.4 3.1,-4.2 5.5,-5.6 2.4,-1.2 5.1,-1.9 8,-1.9 z m -0.2,3 c -2.4,0 -4.4,0.9 -6,2.8 -2.1,2.3 -3.1,5.7 -3.1,10.1 0,4.3 0.9,7.5 2.6,9.7 1.6,2 3.8,3 6.5,3 1.8,0 3.3,-0.5 4.7,-1.4 1.4,-0.9 2.5,-2.4 3.3,-4.5 0.8,-2 1.3,-4.4 1.3,-7.2 0,-2.7 -0.5,-5.1 -1.4,-7.2 -0.7,-1.7 -1.8,-3 -3.2,-4 -1.3,-0.8 -2.9,-1.3 -4.7,-1.3 z"
       id="path13"
       inkscape:connector-curvature="0"
       style="fill:#cccccc" />
  </g>
  <path
     d="M 130.13169,0 C 59.801144,0 2.7963888,57.004755 2.7963888,127.3353 c 0,70.33054 57.0047552,127.33529 127.3353012,127.33529 70.33054,0 127.33529,-57.00475 127.33529,-127.33529 C 257.46698,57.004755 200.46223,0 130.13169,0 Z m 60.45958,144.60946 c -1.23387,4.93548 -3.20806,8.88386 -5.92257,12.09192 -2.46774,3.20806 -4.93548,5.18225 -7.64999,6.16935 -2.71451,0.98709 -5.42902,1.48064 -8.39031,1.48064 -2.96128,0 -5.42902,-0.49355 -7.40321,-1.72742 -1.97419,-0.98709 -3.45484,-2.71451 -4.68871,-4.6887 -1.23386,-1.97419 -1.97419,-4.44193 -2.46773,-7.15644 -0.49355,-2.71451 -0.74032,-5.6758 -0.74032,-8.88386 0,-1.23387 0,-2.46774 0.24677,-4.19515 0.24677,-1.72742 0.49355,-3.94838 0.74032,-3.94838 h -0.49355 c -3.94838,9.87095 -9.3774,17.02739 -16.28707,22.70319 -6.90967,5.6758 -14.55966,8.39031 -22.94997,8.39031 -5.67579,0 -10.3645,-2.22097 -13.57256,-6.41612 -3.45483,-4.19516 -5.182247,-10.61128 -5.182247,-19.00159 0,-1.23387 0,-2.46773 0.246774,-3.94838 0.246773,-1.23387 0.246773,-1.72741 0.493547,-4.19515 h -1.727417 c -2.220964,4.93547 -4.195155,11.84514 -5.675798,18.01449 -1.480643,6.16934 -2.714512,11.84514 -3.454833,17.02739 -0.987096,5.18225 -1.480643,9.87095 -1.974191,13.81934 -0.493548,3.94838 -0.740321,6.66289 -0.987095,8.14353 0.246774,1.23387 0.493547,2.46774 0.740321,3.94838 0.493548,1.48065 0.740322,2.96129 1.233869,4.19516 0.493548,1.23387 0.740322,2.71451 0.987096,3.94838 0.246774,1.23387 0.493547,2.22096 0.493547,2.96129 0,3.45483 -0.740321,6.16934 -2.220964,7.89676 -1.480643,1.72742 -3.20806,2.71451 -4.935477,2.71451 -2.220964,0 -4.195155,-0.74032 -5.675798,-1.97419 -1.727417,-1.48064 -2.467738,-3.70161 -2.467738,-6.66289 0,-4.19516 0.740321,-9.62418 2.220964,-16.0403 1.480643,-6.41612 3.701608,-14.55966 6.41612,-24.18384 1.480643,-4.44193 2.714512,-8.88386 4.195155,-13.32578 1.480643,-4.44193 2.714512,-8.63709 3.948381,-12.3387 1.233869,-3.7016 2.220965,-7.15644 3.20806,-10.11772 0.987095,-2.96129 1.480643,-5.18225 1.727417,-6.90967 0.246774,-0.74032 0.493548,-2.46774 0.740321,-4.93548 0.246774,-2.46774 0.493548,-5.18225 0.987096,-8.39031 0.493547,-3.20806 0.740321,-6.66289 1.233869,-10.117724 0.493548,-3.701608 0.987095,-6.909667 1.233869,-9.870953 0.493548,-2.220965 0.740322,-4.688703 1.233869,-7.403215 0.493548,-2.714512 1.233869,-5.429025 2.220963,-7.649989 0.9871,-2.467738 2.46774,-4.441929 4.19516,-6.169346 1.72741,-1.727417 3.94838,-2.467738 6.66289,-2.467738 2.96129,0 4.93548,0.987095 5.92257,2.714512 0.9871,1.727417 1.48065,3.948381 1.23387,6.41612 -0.24677,2.467738 -0.49355,5.18225 -1.23387,7.896762 -0.74032,2.714512 -1.48064,5.182251 -2.22096,7.156441 -1.97419,6.169346 -3.94838,11.84514 -6.16935,16.53385 -2.22096,4.6887 -4.19515,9.87095 -5.92257,15.29997 -1.48064,3.70161 -1.97419,7.15645 -1.97419,10.11773 0,5.42903 1.72742,9.37741 4.93548,12.33869 3.45483,2.96129 7.40321,4.19516 12.09191,4.19516 3.70161,0 7.40322,-1.23387 10.85805,-3.94838 3.45484,-2.71452 6.6629,-5.92258 9.62418,-9.62418 2.96129,-3.70161 5.42903,-7.64999 7.40322,-12.09192 1.97419,-4.19516 3.45483,-8.14354 4.44193,-11.3516 0.24677,-0.49354 0.49354,-1.48064 0.74032,-3.45483 0.49354,-1.97419 0.74032,-4.19516 1.23387,-6.66289 0.49354,-2.467742 0.98709,-4.93548 1.48064,-7.649992 0.49355,-2.714512 0.98709,-4.935477 1.23387,-6.662894 0.49355,-1.97419 0.74032,-3.948381 1.23387,-6.416119 0.49354,-2.467739 1.23387,-4.688703 2.22096,-6.909667 0.9871,-2.220965 2.46774,-3.948382 3.94838,-5.429025 1.72742,-1.480643 3.70161,-2.220964 6.41612,-2.220964 3.20806,0 5.18225,0.987095 6.41612,2.714512 0.9871,1.727417 1.48065,3.948381 1.48065,6.416119 -0.24678,2.467739 -0.49355,4.935477 -1.23387,7.403215 -0.74033,2.467739 -1.23387,4.441929 -1.72742,5.922572 -1.97419,6.169346 -3.94838,11.59837 -5.92257,16.533843 -1.97419,4.93548 -3.70161,9.37741 -5.42903,12.83224 -1.48064,3.70161 -2.71451,6.41612 -3.7016,8.63709 -0.9871,2.22096 -1.48065,3.7016 -1.48065,4.44193 0,6.41612 1.48065,11.10482 4.19516,13.81933 2.71451,2.71451 5.6758,4.19516 8.88386,4.19516 5.42902,0 9.62417,-1.72742 12.83223,-4.93548 3.20806,-3.45483 5.6758,-9.62418 7.15645,-17.0274 h 1.97419 c 0.49354,7.15645 -0.24678,13.07902 -1.48065,18.01449 z"
     id="path15"
     inkscape:connector-curvature="0"
     style="fill:#2e3192;stroke-width:2.46774" />
</svg>
