<?xml version="1.0" encoding="UTF-8"?>
<svg viewBox="0 0 15.949284 14.007809" xmlns="http://www.w3.org/2000/svg">
  <path style="fill:#5c5" d="M 14.656275,1.28906 C 13.824235,0.46094 12.718775,0 11.542985,0 c -0.8164,0 -1.5976503,0.22265 -2.2773403,0.63281 -0.30859,0.1875 -0.59766,0.41016 -0.85937,0.67188 l -0.4336,0.43359 -0.43359,-0.43359 C 7.2812747,1.04297 6.9922047,0.82031 6.6836147,0.63281 6.0000247,0.22265 5.2187747,0 4.4062747,0 3.2304847,0 2.1211147,0.46094 1.2890847,1.28906 0.45705467,2.125 -0.00388533,3.23437 2.4673162e-5,4.41406 c 0,1.17578 0.464839996838,2.28125 1.296870026838,3.11719 l 6.34375,6.33984 c 0.0898,0.0898 0.20703,0.13672 0.32031,0.13672 h 0.0274 c 0.11328,0 0.23047,-0.0469 0.3164,-0.13672 L 14.648505,7.53125 c 0.83594,-0.83594 1.30078,-1.94141 1.30078,-3.11719 0,-1.17969 -0.45703,-2.28906 -1.29296,-3.125"/>
</svg>
