<?xml version="1.0" encoding="UTF-8" standalone="no"?>
<svg viewBox="0 0 45 45" style="enable-background:new 0 0 45 45;" xml:space="preserve" version="1.1" id="svg2" sodipodi:docname="Twemoji2_1f0cf.svg" inkscape:version="1.1 (c68e22c387, 2021-05-23)" xmlns:inkscape="http://www.inkscape.org/namespaces/inkscape" xmlns:sodipodi="http://sodipodi.sourceforge.net/DTD/sodipodi-0.dtd" xmlns="http://www.w3.org/2000/svg" xmlns:svg="http://www.w3.org/2000/svg" xmlns:rdf="http://www.w3.org/1999/02/22-rdf-syntax-ns#" xmlns:cc="http://creativecommons.org/ns#" xmlns:dc="http://purl.org/dc/elements/1.1/"><sodipodi:namedview id="namedview1379" pagecolor="#505050" bordercolor="#eeeeee" borderopacity="1" inkscape:pageshadow="0" inkscape:pageopacity="0" inkscape:pagecheckerboard="0" showgrid="false" inkscape:zoom="10.638128" inkscape:cx="22.466359" inkscape:cy="20.915334" inkscape:window-width="1280" inkscape:window-height="737" inkscape:window-x="-8" inkscape:window-y="-8" inkscape:window-maximized="1" inkscape:current-layer="svg2"/><metadata id="metadata8"><rdf:RDF><cc:Work rdf:about=""><dc:format>image/svg+xml</dc:format><dc:type rdf:resource="http://purl.org/dc/dcmitype/StillImage"/></cc:Work></rdf:RDF></metadata><defs id="defs6"><clipPath id="clipPath16" clipPathUnits="userSpaceOnUse"><path id="path18" d="M 0,36 36,36 36,0 0,0 0,36 Z"/></clipPath></defs><circle style="fill:#e6e7e8;fill-opacity:1;stroke:none;stroke-width:19.3203;stroke-miterlimit:4;stroke-dasharray:none;stroke-opacity:1;paint-order:markers fill stroke" id="path2215" cx="22.567732" cy="22.543316" r="22.47373"/><g transform="matrix(1.25,0,0,-1.25,21.250625,21.25)" id="g52"/><g id="g2738" transform="matrix(1.2271775,-0.31150618,0.31150618,1.2271775,-8.6737442,14.227181)"><g id="g2714"><path id="path26" style="fill:#dd2e44;fill-opacity:1;fill-rule:nonzero;stroke:none;stroke-width:1.25" d="m 13.793843,8.9472955 c -3.14875,0 -5.729609,2.3371885 -6.162109,5.3671885 0.91375,-0.98875 2.2108594,-1.617188 3.662109,-1.617188 2.76125,0 5,2.23875 5,5 0,0.609194 0.111858,1.082872 0.265625,1.466797 0.59124,-1.802057 2.001857,-2.501696 3.486328,-2.773438 0.0019,-0.386298 -0.002,-0.784415 -0.002,-1.193359 0,-3.45125 -2.79875,-6.2500005 -6.25,-6.2500005 z"/><g transform="matrix(1.25,0,0,-1.25,8.75,13.75)" id="g64"><path id="path66" style="fill:#a0041e;fill-opacity:1;fill-rule:nonzero;stroke:none" d="m 0,0 c 0,-0.552 -0.448,-1 -1,-1 -0.552,0 -1,0.448 -1,1 0,0.552 0.448,1 1,1 0.552,0 1,-0.448 1,-1"/></g></g><g id="g2724"><path id="path30" style="fill:#55acee;fill-opacity:1;fill-rule:nonzero;stroke:none;stroke-width:1.25" d="m 31.337687,8.9472955 c -3.4525,0 -6.25,2.7987505 -6.25,6.2500005 0,0.465473 -0.5079,0.543379 -0.5042,0.978893 1.45526,0.246779 3.361287,1.259434 4.010059,2.927357 0.141892,-0.373534 0.244141,-0.827484 0.244141,-1.40625 0,-2.76125 2.23875,-5 5,-5 1.45125,0 2.748359,0.628437 3.662109,1.617188 -0.4325,-3.03 -3.012109,-5.3671885 -6.162109,-5.3671885 z" sodipodi:nodetypes="ssccsscs"/><g transform="matrix(1.25,0,0,-1.25,36.25,13.75)" id="g68"><path id="path70" style="fill:#226699;fill-opacity:1;fill-rule:nonzero;stroke:none" d="M 0,0 C 0,-0.552 0.447,-1 1,-1 1.553,-1 2,-0.552 2,0 2,0.552 1.553,1 1,1 0.447,1 0,0.552 0,0"/></g></g><g id="g2719"><path id="path34" style="fill:#ffac33;fill-opacity:1;fill-rule:nonzero;stroke:none;stroke-width:1.25" d="m 22.5,3.75 c 0,0 -5,5.03625 -5,11.25 0,0.858137 0.04412,1.693036 0.125,2.496094 C 18.944881,16.316046 20.959249,16.25 22.5,16.25 c 1.540751,0 3.555119,0.06605 4.875,1.246094 C 27.455876,16.693036 27.5,15.858137 27.5,15 c 0,-6.21375 -5,-11.25 -5,-11.25 z"/><g transform="matrix(1.25,0,0,-1.25,21.25,3.75)" id="g72"><path id="path74" style="fill:#dd2e44;fill-opacity:1;fill-rule:nonzero;stroke:none" d="M 0,0 C 0,0.552 0.448,1 1,1 1.552,1 2,0.552 2,0 2,-0.552 1.552,-1 1,-1 0.448,-1 0,-0.552 0,0"/></g></g></g></svg>