<?xml version="1.0" encoding="UTF-8"?>
<svg width="133.89" height="120.51" version="1.2" viewBox="0 0 133.89 120.51" xml:space="preserve" xmlns="http://www.w3.org/2000/svg">
<path d="m133.16 57.604-16.439-3.057c-0.4-0.075-0.838-0.451-0.973-0.837l-5.039-11.756c-0.188-0.363-0.152-0.933 0.08-1.271l9.578-13.96c0.229-0.336 0.184-0.847-0.105-1.136l-11.963-11.963c-0.289-0.289-0.799-0.336-1.135-0.105l-14.205 9.748c-0.336 0.231-0.912 0.272-1.277 0.092l-11.396-4.665c-0.387-0.128-0.764-0.561-0.84-0.962l-3.165-17.003c-0.074-0.401-0.469-0.729-0.877-0.729h-16.92c-0.407 0-0.802 0.328-0.876 0.729l-3.164 17.003c-0.076 0.401-0.452 0.834-0.84 0.962l-11.397 4.665c-0.366 0.18-0.942 0.139-1.277-0.092l-14.204-9.748c-0.337-0.231-0.848-0.184-1.136 0.105l-11.964 11.963c-0.288 0.289-0.336 0.8-0.105 1.136l9.579 13.96c0.23 0.338 0.266 0.908 0.079 1.271l-5.04 11.756c-0.134 0.386-0.571 0.762-0.973 0.837l-16.438 3.057c-0.402 0.076-0.729 0.47-0.729 0.878l1e-3 16.919c0 0.408 0.328 0.805 0.729 0.878l16.035 2.984c0.401 0.073 0.83 0.454 0.952 0.843l5.006 12.505c0.179 0.367 0.137 0.941-0.095 1.277l-9.108 13.273c-0.23 0.336-0.183 0.848 0.105 1.137l11.965 11.963c0.288 0.287 0.799 0.334 1.136 0.105l13.038-8.949c0.336-0.23 0.899-0.248 1.25-0.043l5.75 3.07c0.364 0.186 0.789 0.029 0.945-0.348l11.856-28.647c0.157-0.377 0-0.858-0.348-1.071l-1.439-0.881c-0.266-0.162-0.627-0.441-0.91-0.697-5.191-3.324-8.635-9.139-8.635-15.761 0-10.334 8.378-18.711 18.711-18.711s18.71 8.377 18.71 18.711c0 6.622-3.443 12.437-8.635 15.761-0.281 0.256-0.643 0.535-0.908 0.697l-1.439 0.881c-0.346 0.213-0.504 0.694-0.348 1.071l11.855 28.648c0.156 0.377 0.58 0.533 0.945 0.348l5.75-3.07c0.352-0.205 0.914-0.188 1.25 0.043l13.039 8.949c0.336 0.229 0.848 0.182 1.135-0.105l11.965-11.963c0.289-0.289 0.336-0.801 0.105-1.137l-9.109-13.273c-0.23-0.336-0.273-0.91-0.094-1.277l5.006-12.505c0.123-0.389 0.549-0.77 0.951-0.843l16.035-2.984c0.4-0.073 0.729-0.47 0.729-0.878l2e-3 -16.919c1e-3 -0.409-0.327-0.803-0.727-0.879" fill="#0099b0"/>

















</svg>
