<?xml version="1.0" encoding="UTF-8"?>
<svg xmlns="http://www.w3.org/2000/svg" xml:space="preserve" id="Layer_1" x="0" y="0" version="1.1" viewBox="0 0 960 960">
  <style>
    .st0{fill:#f2f2f2}
  </style>
  <path d="M530.7 615c-16.7-34.6-17.1-74.8-1.7-110 19-43.5 42.7-114.1 48.5-149.3 14-84.8-33-157.9-117.2-189.4-130.5-48.7-267.8 26.2-308.6 146.9s18.6 245.5 96.4 345.8 222.3 152.2 283.7 58.3c24.4-37.1 11.6-76-1.1-102.3zm-122.9 95c-25.9-10.1-38.7-39.3-28.6-65.2s39.3-38.7 65.2-28.6c25.9 10.1 38.7 39.3 28.6 65.2-10.1 25.9-39.3 38.7-65.2 28.6z" class="st0"/>
  <circle cx="234.7" cy="392.7" r="58.1" fill="#0071bc" transform="rotate(-68.685 234.71744498 392.67985587)"/>
  <path fill="#2e3192" d="M233.5 444.1c-29.9-11.7-44.7-45.4-33-75.3 6.6-16.9 20.3-29 36.3-34.2-24-.9-47 13.3-56.3 36.9-11.7 29.9 3.1 63.6 33 75.3 13 5.1 26.7 5.1 39 1.2-6.3-.2-12.7-1.5-19-3.9z"/>
  <circle cx="280.8" cy="535.2" r="58.1" fill="#662d91" transform="rotate(-68.685 280.7734554 535.20384753)"/>
  <path fill="#44186b" d="M275.3 575.1c-29.9-11.7-44.7-45.4-33-75.3 2-5.1 4.7-9.7 7.8-13.9-10.3 6.4-18.7 16-23.5 28.2-11.7 29.9 3.1 63.6 33 75.3 24.8 9.7 52.2 1.1 67.5-19.2-15 9.4-34 11.8-51.8 4.9z"/>
  <circle cx="311.5" cy="263.1" r="58.1" fill="#009245" transform="rotate(-68.685 311.53753032 263.06337275)"/>
  <path fill="#006837" d="M308.7 312.1c-29.9-11.7-44.7-45.4-33-75.3 5.7-14.5 16.6-25.5 29.7-31.6-20.9 2.2-39.9 15.7-48 36.6-11.7 29.9 3.1 63.6 33 75.3 15.4 6 31.7 5 45.6-1.5-9 1.1-18.3 0-27.3-3.5z"/>
  <circle cx="462.3" cy="284.1" r="58.1" fill="#f7931e" transform="rotate(-68.685 462.33961672 284.07574715)"/>
  <path fill="#c9721b" d="M457.4 327.9c-29.9-11.7-44.7-45.4-33-75.3 3.4-8.7 8.7-16.1 15.2-22-13.9 5.9-25.5 17.2-31.4 32.3-11.7 29.9 3.1 63.6 33 75.3 21.2 8.3 44.3 3.2 60.1-11.1-13.5 5.9-29.2 6.6-43.9.8z"/>
  <circle cx="460.8" cy="418.5" r="58.1" fill="#c1272d" transform="rotate(-68.685 460.79006138 418.4835488)"/>
  <path fill="#ad212b" d="M453.8 461.8c-29.9-11.7-44.7-45.4-33-75.3 2.8-7.3 7-13.6 12.1-18.9-11.6 6.3-21.1 16.6-26.2 29.8-11.7 29.9 3.1 63.6 33 75.3 22.6 8.8 47.4 2.5 63.2-14.1-14.6 7.9-32.4 9.7-49.1 3.2z"/>
  <path d="m753.8 352.4-25.5-8-39.8 91.3c-5.9 13.5-12.5 30.7-19.3 50.1l78.7 24.8c5.5-19.7 9.9-37.6 12.8-52.1l19.7-97.6-25.5-8-1.1-.5z" class="st0"/>
  <path fill="#e6e6e6" d="M681.6 452.5c-4 10-8.1 21.2-12.4 33.3l78.7 24.8c3.4-12.3 6.4-23.9 8.9-34.3l-75.2-23.8z"/>
  <path fill="#4d4d4d" d="M736.4 283.5c20.2-45.3 85.2-66.3 85.2-66.3s-20.5 32.3-11.8 72c8 36.6-17.9 60.1-40.2 64.9-22.4 4.8-53.4-25.4-33.2-70.6z"/>
  <path fill="#1a1a1a" d="M787.7 327.9c-22.2 4.8-53.1-25.1-33.4-70.1-7.3 7.5-13.6 16-17.9 25.6-20.2 45.3 10.9 75.5 33.2 70.6 15.8-3.4 33.3-16.3 39.4-36.4-6.7 5.3-14.2 8.8-21.3 10.3z"/>
  <path fill="#93278f" d="M669.2 485.7c-26.2 74.3-55.9 180.6-63 236.4l-3.5 27.4c-1.7 13-1 31.8.1 47.2.8 11.3 15 16 22.3 7.4 10-11.8 18.8-25 26.3-39.3l12.8-24.5c26.1-49.9 62.7-154 83.7-229.9l-78.7-24.7z"/>
  <path fill="#7a227a" d="M635.7 746c-1.1-15.5-1.8-34.2-.1-47.2l3.5-27.4c5.5-43 24.4-115.8 44.7-181l-14.6-4.6c-26.2 74.3-55.9 180.6-63 236.4l-3.5 27.4c-1.7 13-1 31.8.1 47.2.8 11.3 15 16 22.3 7.4 10-11.8 18.8-25 26.3-39.3l5.5-10.5c-7.6 7-20.4 2.3-21.2-8.4z"/>
</svg>