<svg viewBox="0 0 1000 220.5" xmlns="http://www.w3.org/2000/svg">
  <path d="m26.702 150.39h91.39m-47.979 18.275h126.73" fill="none" stroke="#3c6eb4" stroke-width="4.8753"/>
  <path d="m340.12 64.171c-14.377 0-25.464 5.889-32.219 16.63v-15.939h-19.92v125.76h19.92v-49.541c6.7553 10.737 17.842 16.63 32.565 16.63 26.33 0 43.652-18.884 43.652-46.426 0-28.063-17.842-47.117-43.997-47.117zm-4.1564 76.567c-16.46 0-28.063-12.303-28.063-30.141 0-17.326 11.603-29.795 28.063-29.795 16.451 0 28.063 12.644 28.063 29.795 0 17.667-11.612 30.136-28.063 30.136zm108.38-76.567c-28.579 0-48.154 18.884-48.154 46.771 0 27.717 19.575 46.771 48.154 46.771 28.408 0 47.983-19.054 47.983-46.771 0-27.888-19.575-46.771-47.983-46.771zm0 17.151c16.46 0 28.063 12.124 28.063 29.795 0 17.838-11.603 29.966-28.063 29.966-16.626 0-28.233-12.128-28.233-29.966 0-17.672 11.608-29.795 28.233-29.795zm136.67-52.835v52.315c-6.7553-10.737-17.838-16.801-32.735-16.801-25.989 0-43.827 18.879-43.827 46.596 0 28.063 17.667 47.287 44.172 47.287 14.723 0 25.805-5.889 32.394-16.626v15.759h19.92v-128.53zm-28.233 112.77c-16.801 0-28.233-12.474-28.408-29.97 0.1751-17.667 11.778-30.311 28.408-30.311s28.233 12.469 28.233 30.311c0 17.497-11.603 29.97-28.233 29.97z" font-family="Montserrat" style="fill:#892ca0;stroke-width:1.2211"/>
  <path d="m751.41 64.171c-16.801 0-29.1 6.7553-34.993 22.174-4.3315-14.031-15.589-22.174-32.044-22.174-15.243 0-27.021 5.5434-33.431 18.538v-17.842h-19.75v92.151h19.75v-45.555c0-16.11 9.6998-28.238 25.634-28.754 13.515 0 21.658 8.4879 21.658 22.515v51.794h19.916v-45.555c0-16.11 9.5294-28.238 25.293-28.754 13.511 0 21.824 8.4879 21.824 22.515v51.794h19.92v-57.333c0-22.003-12.644-35.514-33.777-35.514zm135.28 92.847-0.17511-60.457c-0.1751-20.261-13.511-32.39-37.242-32.39-17.497 0-26.851 3.9859-39.67 11.608l8.1423 13.856c9.1838-6.2346 18.363-9.3542 27.196-9.3542 14.552 0 21.999 6.9304 21.999 18.538v2.7694h-27.888c-22.174 0.1751-34.818 10.912-34.818 27.717 0 16.28 12.474 28.579 32.394 28.579 13.336 0 23.902-3.9813 30.487-12.124v11.257zm-45.905-14.893c-11.087 0-17.842-5.3729-17.842-13.686 0-8.8335 6.0641-12.303 19.054-12.303h24.948v8.4925c-1.0414 10.045-11.953 17.497-26.16 17.497zm126.44-77.954c-15.589 0-27.372 5.5434-33.952 18.363v-17.667h-19.92v92.151h19.92v-49.02c1.3824-14.377 10.912-24.943 26.155-25.114 13.861 0 22.174 8.4833 22.174 22.34v51.794h19.92v-57.333c0-22.003-12.815-35.514-34.297-35.514z" fill="#60605b" style="stroke-width:1.2211"/>
  <path d="m121.32 105.27h58.628m-48.868 12.193h58.623" fill="none" stroke="#3c6eb4" stroke-width="4.8753"/>
  <path d="m172.98 131.14c-12.236-19.847-9.4966-38.994-15.278-66.351-3.1797-16.893-13.895-30.842-27.843-35.949-11.51-4.015-35.416-4.0309-45.549 0-13.953 5.1076-24.669 19.057-27.843 35.949-5.787 27.357-3.0472 46.504-15.278 66.351" fill="#ccc" fill-rule="evenodd" stroke="#000" stroke-width="3.6581"/>
  <ellipse cx="138.32" cy="91.339" rx="5.9142" ry="6.232" fill="#e7e8e9" style="stroke-width:4.6071"/>
  <ellipse cx="78.56" cy="91.339" rx="5.9142" ry="6.232" fill="#e7e8e9" style="stroke-width:4.6071"/>
  <path d="m88.83 87.913-21.977 5.8925m24.467-2.4663-22.099 12.772m23.969-8.7248-22.411 22.435m23.344-17.137-11.452 19.852m47.123-32.624 21.977 5.8925m-24.467-2.4663 22.099 12.772m-23.969-8.7248 22.417 22.435m-23.349-17.137 11.452 19.852" fill="none" stroke="#a7a9ac" stroke-width="2.4387"/>
  <ellipse cx="109.06" cy="86.979" rx="18.988" ry="18.065" fill="#fff" stroke="#60605b" stroke-dashoffset="6" stroke-linecap="square" stroke-width="3.6581"/>
  <ellipse transform="scale(-1,1)" cx="-138.13" cy="71.534" rx="9.1415" ry="9.3824" stroke="#892ca0" stroke-linecap="square" stroke-width="3.6581"/>
  <g stroke="#000" stroke-width="3.6581">
    <path d="m146.32 51.894a10.456 10.464 0 0 0-7.7266-4.0203 10.44 10.449 0 0 0-7.6948 2.9807" fill="none" stroke-linecap="square"/>
    <path d="m109.06 83.86 0.46635 9.3453s7.4722 6.6987 11.828-0.15382c0 0-0.46635-3.893-0.77902-5.1447m-11.6-4.0468-0.47165 9.3453s-7.4722 6.6987-11.823-0.15382c0 0 0.46636-3.893 0.77372-5.1447" fill="none"/>
    <path d="m117.17 83.717c-0.63593-1.6442-0.63593-4.9485-2.5437-4.9485-1.9131 0-3.6831-1.2358-5.5644-1.2358-1.876 0-3.6407 1.2358-5.5485 1.2358-1.9078 0-1.9078 3.299-2.549 4.9485-0.63593 1.6495 8.1028 7.0116 8.1028 7.0116s8.7388-5.3568 8.1028-7.0116z" fill="#808080" stroke-linecap="square"/>
  </g>
  <ellipse cx="78.946" cy="71.534" rx="9.1415" ry="9.3824" stroke="#892ca0" stroke-linecap="square" stroke-width="3.6581"/>
  <ellipse cx="75.899" cy="68.898" rx="4.4939" ry="4.6727" fill="#fff" style="stroke-width:4.6071"/>
  <path d="m70.754 51.894a10.456 10.464 0 0 1 7.7266-4.0203 10.44 10.449 0 0 1 7.6948 2.9807" fill="none" stroke="#000" stroke-linecap="square" stroke-width="3.6581"/>
  <ellipse cx="135.05" cy="68.898" rx="4.4939" ry="4.6727" fill="#fff" style="stroke-width:4.6071"/>
  <path d="m48.65 130.88h151.73" fill="none" stroke="#3c6eb4" stroke-width="4.8753"/>
  <path d="m104.87 157.11c-1.0026-6.8195-1.4925-14.236-3.3408-22.965-2.0282-10.784-8.886-19.682-17.81-22.942-7.3629-2.564-22.655-2.5716-29.134 0-8.9242 3.2605-15.782 12.158-17.81 22.942-1.8522 8.7252-2.3382 16.149-3.3408 22.965" fill="#ccc" fill-rule="evenodd" stroke="#000" stroke-width="3.6585"/>
  <ellipse cx="89.133" cy="151.08" rx="3.7809" ry="3.9761" fill="#e7e8e9" style="stroke-width:4.6075"/>
  <ellipse cx="50.906" cy="151.08" rx="3.7809" ry="3.9761" fill="#e7e8e9" style="stroke-width:4.6075"/>
  <path d="m57.46 148.89-14.056 3.7595m15.648-1.5747-14.137 8.1502m15.332-5.5657-14.336 14.317m14.932-10.939-7.3231 12.673" fill="none" stroke="#a7a9ac" stroke-width="2.4391"/>
  <path d="m83.692 148.89 14.056 3.7595m-15.648-1.5747 14.137 8.1502m-15.332-5.5657 14.336 14.317m-14.932-10.939 7.3231 12.673" fill="none" stroke="#a7a9ac" stroke-width="2.4391"/>
  <ellipse cx="70.416" cy="148.3" rx="12.146" ry="11.53" fill="#fff" stroke="#60605b" stroke-dashoffset="6" stroke-linecap="square" stroke-width="3.6585"/>
  <ellipse transform="scale(-1,1)" cx="-89.01" cy="138.44" rx="5.8474" ry="5.989" stroke="#892ca0" stroke-linecap="square" stroke-width="3.6585"/>
  <g stroke="#000">
    <path d="m94.253 125.91a6.697 6.697 0 0 0-4.9443-2.564 6.697 6.697 0 0 0-4.9213 1.9019" fill="none" stroke-linecap="square" stroke-width="3.6585"/>
    <path d="m70.4 146.31 0.30099 5.9624s4.7767 4.2764 7.5639-0.0992c0 0-0.30099-2.4853-0.49964-3.2787m-7.4194-2.5845-0.301 5.9624s-4.7767 4.2764-7.5639-0.0992c0 0 0.298-2.4853 0.49664-3.2787" fill="none" stroke-width="3.6572"/>
    <path d="m75.601 146.22c-0.40946-1.0524-0.40946-3.161-1.6302-3.161-1.2246 0-2.3535-0.78833-3.5552-0.78833-1.2016 0-2.3306 0.78833-3.5513 0.78833-1.2246 0-1.2246 2.1048-1.6302 3.161-0.40564 1.0524 5.1816 4.4736 5.1816 4.4736s5.591-3.4212 5.1854-4.4774z" fill="#808080" stroke-linecap="square" stroke-width="3.6585"/>
  </g>
  <ellipse cx="51.155" cy="138.44" rx="5.8474" ry="5.989" stroke="#892ca0" stroke-linecap="square" stroke-width="3.6585"/>
  <ellipse cx="49.203" cy="136.76" rx="2.8778" ry="2.9849" fill="#fff" style="stroke-width:4.6075"/>
  <path d="m45.912 125.91a6.697 6.697 0 0 1 4.9405-2.564c1.8101-0.0765 3.6355 0.63143 4.9252 1.9019" fill="none" stroke="#000" stroke-linecap="square" stroke-width="3.6585"/>
  <ellipse cx="87.441" cy="137.18" rx="2.8778" ry="2.9849" fill="#fff" style="stroke-width:4.6075"/>
  <path d="m112.06 218.4-88.934-42.546-22.211-96.132 61.227-77.322 98.565-0.29491 61.673 76.954-21.653 96.261z" fill="none" stroke="#892ca0" stroke-linecap="round" stroke-linejoin="round" stroke-width="4.8753"/>
  <path d="m187.06 166.37c-1.0737-7.2899-1.5944-15.22-3.5712-24.551-2.1704-11.529-9.5017-21.045-19.045-24.528-7.8705-2.7418-24.22-2.751-31.15 0-9.5386 3.4836-16.865 12.999-19.04 24.528-1.9814 9.3312-2.4975 17.262-3.5712 24.556" fill="#ccc" fill-rule="evenodd" stroke="#000" stroke-width="3.6588"/>
  <ellipse cx="170.23" cy="159.93" rx="4.0458" ry="4.2486" fill="#e7e8e9" style="stroke-width:4.608"/>
  <ellipse cx="129.36" cy="159.93" rx="4.0458" ry="4.2486" fill="#e7e8e9" style="stroke-width:4.608"/>
  <path d="m136.37 157.59-15.028 4.0227m16.73-1.6836-15.108 8.7105" fill="none" stroke="#a7a9ac" stroke-width="2.4374"/>
  <path d="m164.42 157.59 15.028 4.0195m-16.73-1.6836 15.115 8.7137" fill="none" stroke="#a7a9ac" stroke-width="2.4374"/>
  <ellipse cx="150.22" cy="156.95" rx="12.985" ry="12.326" fill="#fff" stroke="#60605b" stroke-dashoffset="6" stroke-linecap="square" stroke-width="3.6588"/>
  <ellipse transform="scale(-1,1)" cx="-170.1" cy="146.41" rx="6.2531" ry="6.4005" stroke="#892ca0" stroke-linecap="square" stroke-width="3.6588"/>
  <g stroke="#000">
    <path d="m175.71 133.01a7.1562 7.1562 0 0 0-5.2854-2.7418 7.147 7.147 0 0 0-5.2623 2.0321" fill="none" stroke-linecap="square" stroke-width="3.6588"/>
    <path d="m150.21 154.83 0.32178 6.3746s5.107 4.5721 8.0868-0.10603c0 0-0.32178-2.6572-0.53419-3.5054m-7.9324-2.7632-0.32177 6.3746s-5.107 4.5721-8.0868-0.10603c0 0 0.31859-2.6572 0.53097-3.5054" fill="none" stroke-width="3.656"/>
    <path d="m155.77 154.73c-0.43776-1.1244-0.43776-3.3777-1.7418-3.3777-1.3087 0-2.516-0.84327-3.8016-0.84327s-2.4883 0.84327-3.797 0.84327-1.3087 2.2533-1.7418 3.3777c-0.43776 1.1244 5.5388 4.7831 5.5388 4.7831s5.9766-3.6588 5.5434-4.7831z" fill="#808080" stroke-linecap="square" stroke-width="3.6588"/>
  </g>
  <ellipse cx="129.63" cy="146.41" rx="6.2531" ry="6.4005" stroke="#892ca0" stroke-linecap="square" stroke-width="3.6588"/>
  <ellipse cx="127.54" cy="144.61" rx="3.0735" ry="3.1887" fill="#fff" style="stroke-width:4.608"/>
  <path d="m124.03 133.01a7.1562 7.1562 0 0 1 5.2808-2.7418 7.1424 7.1424 0 0 1 5.2623 2.0321" fill="none" stroke="#000" stroke-linecap="square" stroke-width="3.6588"/>
  <ellipse cx="168.66" cy="145.03" rx="3.0735" ry="3.1887" fill="#fff" style="stroke-width:4.608"/>
  <path d="m60.363 180.86h58.623m-24.487 12.193h48.278" fill="none" stroke="#3c6eb4" stroke-width="4.8753"/>
</svg>
